<!-- Generated by IcoMoon.io -->
<svg version="1.1" xmlns="http://www.w3.org/2000/svg" width="1024" height="1024" viewBox="0 0 1024 1024">
<title></title>
<g id="icomoon-ignore">
</g>
<path fill="#fff" d="M584.533 834.133l250.88-251.307 142.933 143.36c27.58 27.567 44.64 65.658 44.64 107.733s-17.060 80.166-44.64 107.733l-35.414 35.414c-27.567 27.58-65.658 44.64-107.733 44.64s-80.166-17.060-107.733-44.64l-0.001-0.001zM977.92 81.067l-35.413-35.413c-27.567-27.58-65.658-44.64-107.733-44.64s-80.166 17.060-107.733 44.64l-0.001 0.001-215.040 215.467-215.467-215.467c-27.567-27.58-65.658-44.64-107.733-44.64s-80.166 17.060-107.733 44.64l-35.414 35.414c-27.58 27.567-44.64 65.658-44.64 107.733s17.060 80.166 44.64 107.733l215.467 215.467-215.467 215.467c-27.58 27.567-44.64 65.658-44.64 107.733s17.060 80.166 44.64 107.733l35.414 35.414c27.567 27.58 65.658 44.64 107.733 44.64s80.166-17.060 107.733-44.64l681.814-681.814c27.453-27.546 44.427-65.551 44.427-107.52 0-42.182-17.146-80.358-44.849-107.941l-0.005-0.005z"></path>
</svg>
